<svg width="127" height="40" viewBox="0 0 127 40" fill="none" xmlns="http://www.w3.org/2000/svg" preserveAspectRatio="none">
<path d="M6 0V6H0V0H6ZM2 4H4V2H2V4Z" fill="white"/>
<path d="M121 40L121 34L127 34L127 40L121 40ZM125 36L123 36L123 38L125 38L125 36Z" fill="white"/>
<path d="M117 4L123 4L123 10L117 10L117 4ZM121 8L121 6L119 6L119 8L121 8Z" fill="white"/>
<path d="M10 36L4 36L4 30L10 30L10 36ZM6 32L6 34L8 34L8 32L6 32Z" fill="white"/>
<path d="M10 4V10H4V4H10ZM6 8H8V6H6V8Z" fill="white"/>
<path d="M117 36L117 30L123 30L123 36L117 36ZM121 32L119 32L119 34L121 34L121 32Z" fill="white"/>
<path d="M121 0L127 -2.62268e-07L127 6L121 6L121 0ZM125 4L125 2L123 2L123 4L125 4Z" fill="white"/>
<path d="M6 40L7.86805e-07 40L0 34L6 34L6 40ZM2 36L2 38L4 38L4 36L2 36Z" fill="white"/>
<path d="M117 2H10V10H2V30H10V38H117V30H125V10H117V2ZM127 8V32H119V40H8V32H0V8H8V0H119V8H127Z" fill="white"/>
</svg>
