<svg width="40" height="40" viewBox="0 0 40 40" fill="none" xmlns="http://www.w3.org/2000/svg">
<path d="M24 15V16H25V24H24V25H16V24H15V16H16V15H24ZM18 17V18H17V22H18V23H22V22H23V18H22V17H18Z" fill="white"/>
<path d="M13 21L13 19L15 19L15 21L13 21Z" fill="white"/>
<path d="M25 21L25 19L27 19L27 21L25 21Z" fill="white"/>
<path d="M24 16L24 14L26 14L26 16L24 16Z" fill="white"/>
<path d="M14 16L14 14L16 14L16 16L14 16Z" fill="white"/>
<path d="M24 26L24 24L26 24L26 26L24 26Z" fill="white"/>
<path d="M14 26L14 24L16 24L16 26L14 26Z" fill="white"/>
<path d="M21 27L19 27L19 25L21 25L21 27Z" fill="white"/>
<path d="M21 15L19 15L19 13L21 13L21 15Z" fill="white"/>
<path d="M34 2H6V6H2V34H6V38H34V34H38V6H34V2ZM40 4V36H36V40H4V36H0V4H4V0H36V4H40Z" fill="white"/>
<path d="M0 0H2V2H0V0Z" fill="white"/>
<path d="M0 38H2V40H0V38Z" fill="white"/>
<path d="M38 0H40V2H38V0Z" fill="white"/>
<path d="M38 38H40V40H38V38Z" fill="white"/>
</svg>
